<svg width="526" height="526" viewBox="0 0 526 526" fill="none" xmlns="http://www.w3.org/2000/svg">
<path fill-rule="evenodd" clip-rule="evenodd" d="M349.125 262.987L349.431 263.852L350.352 264.734L351.901 265.655L354.095 266.633L356.957 267.689L360.52 268.845L364.815 270.126L369.881 271.556L375.754 273.162L382.465 274.974L390.038 277.018L398.483 279.324L407.787 281.916L417.909 284.817L428.769 288.041L440.239 291.59L452.14 295.454L464.234 299.606L476.222 303.994L487.756 308.548L498.448 313.171L507.89 317.75L515.685 322.152L521.475 326.241L524.975 329.881L526 332.951L524.484 335.355L520.487 337.029L514.191 337.946L505.879 338.119L495.912 337.595L484.69 336.453L472.628 334.79L460.122 332.717L447.528 330.345L435.149 327.784L423.228 325.134L411.948 322.478L401.434 319.891L391.765 317.428L382.978 315.133L375.08 313.039L368.056 311.167L361.873 309.534L356.493 308.149L351.87 307.017L347.961 306.144L344.723 305.532L342.115 305.185L340.106 305.109L338.667 305.311L337.776 305.8L337.419 306.589L337.588 307.696L338.28 309.14L339.499 310.947L341.254 313.144L343.559 315.765L346.43 318.847L349.887 322.429L353.948 326.551L358.629 331.256L363.938 336.582L369.876 342.56L376.426 349.213L383.549 356.545L391.181 364.538L399.223 373.145L407.54 382.281L415.954 391.818L424.247 401.583L432.162 411.354L439.419 420.868L445.722 429.829L450.784 437.926L454.346 444.853L456.206 450.333L456.234 454.146L454.385 456.142L450.713 456.264L445.358 454.546L438.537 451.113L430.523 446.161L421.619 439.947L412.138 432.755L402.378 424.881L392.604 416.609L383.041 408.196L373.868 399.864L365.216 391.794L357.172 384.125L349.786 376.958L343.08 370.362L337.048 364.374L331.672 359.014L326.919 354.283L322.752 350.174L319.129 346.669L316.009 343.752L313.352 341.402L311.122 339.604L309.286 338.342L307.814 337.609L306.681 337.398L305.867 337.713L305.354 338.561L305.13 339.956L305.185 341.919L305.51 344.478L306.101 347.665L306.953 351.519L308.064 356.083L309.43 361.401L311.044 367.519L312.896 374.475L314.974 382.303L317.254 391.019L319.705 400.619L322.284 411.067L324.936 422.291L327.59 434.167L330.162 446.518L332.552 459.105L334.654 471.631L336.353 483.743L337.541 495.047L338.117 505.129L338.001 513.587L337.145 520.055L335.531 524.243L333.183 525.961L330.163 525.138L326.564 521.83L322.506 516.213L318.124 508.565L313.555 499.239L308.93 488.632L304.367 477.15L299.963 465.184L295.791 453.087L291.902 441.161L288.327 429.649L285.078 418.735L282.151 408.551L279.535 399.179L277.207 390.665L275.143 383.022L273.315 376.243L271.693 370.305L270.25 365.176L268.958 360.82L267.793 357.201L266.73 354.283L265.747 352.037L264.822 350.438L263.937 349.467L263.072 349.112L262.208 349.369L261.328 350.242L260.411 351.74L259.438 353.881L258.389 356.69L257.242 360.195L255.972 364.431L254.555 369.435L252.963 375.242L251.17 381.885L249.145 389.389L246.861 397.765L244.292 407.002L241.416 417.061L238.219 427.866L234.696 439.294L230.855 451.169L226.726 463.258L222.354 475.267L217.81 486.851L213.188 497.625L208.602 507.182L204.18 515.122L200.062 521.083L196.381 524.774L193.262 526L190.802 524.685L189.069 520.881L188.091 514.759L187.86 506.595L188.331 496.745L189.427 485.608L191.053 473.598L193.098 461.113L195.45 448.514L197.999 436.107L200.646 424.142L203.303 412.806L205.899 402.227L208.373 392.489L210.683 383.631L212.794 375.663L214.684 368.569L216.336 362.321L217.742 356.878L218.894 352.197L219.788 348.233L220.42 344.942L220.788 342.286L220.886 340.23L220.707 338.746L220.241 337.812L219.476 337.413L218.396 337.54L216.979 338.19L215.202 339.367L213.037 341.079L210.451 343.34L207.408 346.166L203.867 349.575L199.789 353.588L195.132 358.219L189.858 363.478L183.932 369.366L177.334 375.868L170.056 382.948L162.114 390.542L153.554 398.557L144.456 406.858L134.945 415.272L125.191 423.583L115.412 431.539L105.867 438.859L96.8508 445.249L88.6737 450.42L81.6431 454.11L76.0383 456.112L72.0866 456.287L69.9422 454.588L69.6711 451.057L71.2458 445.829L74.5493 439.115L79.3882 431.184L85.5121 422.34L92.6368 412.894L100.467 403.145L108.718 393.363L117.128 383.777L125.473 374.567L133.57 365.869L141.274 357.774L148.484 350.335L155.128 343.574L161.164 337.49L166.575 332.062L171.355 327.261L175.514 323.048L179.066 319.383L182.029 316.224L184.423 313.532L186.265 311.27L187.568 309.403L188.344 307.903L188.596 306.744L188.323 305.905L187.518 305.369L186.168 305.123L184.251 305.155L181.741 305.459L178.605 306.029L174.805 306.861L170.3 307.951L165.043 309.297L158.991 310.891L152.103 312.725L144.346 314.785L135.701 317.05L126.171 319.489L115.788 322.06L104.622 324.709L92.7927 327.366L80.4719 329.947L67.8932 332.356L55.3502 334.485L43.1918 336.22L31.809 337.453L21.6141 338.08L13.0134 338.023L6.37506 337.226L1.99694 335.672L0.0781639 333.381L0.69933 330.411L3.81454 326.854L9.25664 322.828L16.7547 318.466L25.9606 313.907L36.4807 309.282L47.9076 304.71L59.8483 300.29L71.9463 296.097L83.8955 292.185L95.4482 288.584L106.415 285.309L116.66 282.357L126.099 279.717L134.682 277.367L142.394 275.283L149.241 273.436L155.245 271.799L160.437 270.343L164.853 269.04L168.53 267.866L171.502 266.795L173.8 265.806L175.45 264.878L176.471 263.99L176.874 263.124L176.666 262.261L175.843 261.383L174.395 260.469L172.306 259.502L169.551 258.46L166.103 257.321L161.926 256.062L156.985 254.657L151.244 253.081L144.668 251.304L137.233 249.299L128.927 247.037L119.757 244.491L109.762 241.641L99.0124 238.469L87.6286 234.971L75.7816 231.156L63.7005 227.047L51.6732 222.692L40.0414 218.159L29.1884 213.54L19.5199 208.946L11.4372 204.506L5.30653 200.358L1.42659 196.638L0 193.47L1.11248 190.954L4.72348 189.162L10.67 188.124L18.6829 187.835L28.4129 188.252L39.4624 189.302L51.4176 190.889L63.8783 192.905L76.4804 195.236L88.9115 197.774L100.919 200.416L112.311 203.076L122.953 205.678L132.76 208.165L141.689 210.489L149.728 212.617L156.89 214.525L163.204 216.197L168.709 217.622L173.449 218.794L177.469 219.709L180.812 220.363L183.517 220.752L185.62 220.871L187.148 220.715L188.125 220.272L188.566 219.532L188.481 218.477L187.872 217.088L186.738 215.341L185.069 213.208L182.853 210.656L180.073 207.651L176.71 204.151L172.747 200.118L168.165 195.508L162.956 190.284L157.118 184.411L150.664 177.867L143.629 170.642L136.072 162.752L128.087 154.238L119.803 145.179L111.391 135.696L103.063 125.953L95.0684 116.167L87.687 106.593L81.2125 97.523L75.935 89.2675L72.1182 82.1347L69.9762 76.4071L69.6519 72.317L71.2024 70.025L74.5911 69.6044L79.6909 71.0353L86.2957 74.2074L94.1401 78.9327L102.923 84.9645L112.332 92.0204L122.067 99.8054L131.855 108.033L141.464 116.439L150.709 124.797L159.452 132.919L167.597 140.66L175.089 147.911L181.904 154.602L188.042 160.688L193.521 166.149L198.371 170.979L202.629 175.187L206.336 178.787L209.533 181.797L212.261 184.235L214.556 186.12L216.453 187.467L217.982 188.284L219.167 188.577L220.031 188.347L220.59 187.585L220.859 186.278L220.849 184.407L220.566 181.945L220.018 178.861L219.206 175.116L218.136 170.668L216.811 165.472L215.237 159.485L213.421 152.665L211.378 144.978L209.129 136.403L206.702 126.943L204.14 116.625L201.495 105.519L198.836 93.7361L196.245 81.4465L193.819 68.8781L191.664 56.3199L189.893 44.1168L188.616 32.6571L187.937 22.3523L187.938 13.6102L188.675 6.80346L190.169 2.23651L192.403 0.117255L195.322 0.536178L198.836 3.45744L202.829 8.72305L207.169 16.0694L211.718 25.1536L216.341 35.5842L220.921 46.9538L225.356 58.8675L229.57 70.965L233.506 82.9362L237.132 94.5283L240.433 105.547L243.41 115.854L246.075 125.359L248.447 134.012L250.551 141.793L252.415 148.709L254.068 154.779L255.538 160.035L256.852 164.511L258.035 168.245L259.113 171.272L260.108 173.623L261.04 175.324L261.931 176.394L262.798 176.847L263.66 176.687L264.537 175.913L265.447 174.516L266.409 172.478L267.444 169.778L268.575 166.386L269.823 162.268L271.215 157.39L272.777 151.713L274.537 145.205L276.523 137.839L278.763 129.602L281.285 120.5L284.111 110.567L287.257 99.8744L290.728 88.5355L294.519 76.7175L298.606 64.645L302.943 52.6014L307.465 40.9242L312.082 29.9943L316.682 20.2163L321.139 11.9931L325.315 5.69486L329.074 1.62676L332.29 0L334.86 0.91011L336.712 4.32664L337.811 10.0959L338.158 17.9563L337.795 27.5639L336.792 38.5237L335.244 50.422L333.258 62.8566L330.948 75.4598L328.423 87.9149L325.785 99.9643L323.124 111.411L320.515 122.117L318.017 131.993L315.679 140.992L313.535 149.102L311.608 156.333L309.917 162.713L308.472 168.281L307.279 173.081L306.344 177.156L305.669 180.552L305.259 183.306L305.118 185.456L305.252 187.029L305.672 188.05L306.388 188.533L307.417 188.489L308.779 187.923L310.496 186.83L312.597 185.204L315.114 183.032L318.082 180.297L321.54 176.982L325.53 173.067L330.092 168.535L335.266 163.376L341.086 157.587L347.576 151.182L354.746 144.191L362.585 136.673L371.051 128.717L380.07 120.451L389.526 112.042L399.254 103.698L409.046 95.6672L418.647 88.2261L427.768 81.6685L436.1 76.2854L443.333 72.3437L449.181 70.0619L453.409 69.5896L455.848 70.9909L456.418 74.2368L455.132 79.207L452.092 85.7012L447.482 93.4577L441.545 102.178L434.56 111.549L426.822 121.268L418.62 131.061L410.219 140.692L401.85 149.972L393.703 158.758L385.928 166.954L378.635 174.5L371.897 181.369L365.762 187.56L360.252 193.091L355.371 197.99L351.114 202.293L347.467 206.043L344.411 209.279L341.928 212.043L339.999 214.372L338.61 216.299L337.751 217.856L337.416 219.068L337.605 219.956L338.324 220.54L339.587 220.831L341.412 220.843L343.825 220.582L346.859 220.054L350.55 219.264L354.94 218.214L360.074 216.909L365.997 215.354L372.749 213.557L380.366 211.532L388.87 209.298L398.26 206.884L408.511 204.331L419.558 201.69L431.292 199.029L443.548 196.429L456.104 193.986L468.675 191.805L480.92 189.999L492.454 188.68L502.865 187.95L511.746 187.894L518.719 188.571L523.473 190.005L525.792 192.181L525.576 195.049L522.85 198.519L517.763 202.479L510.57 206.797L501.611 211.334L491.273 215.956L479.963 220.544L468.079 224.994L455.984 229.227L443.993 233.187L432.363 236.838L421.293 240.166L410.926 243.168L401.355 245.857L392.634 248.252L384.783 250.376L377.799 252.259L371.663 253.927L366.344 255.411L361.806 256.736L358.015 257.929L354.932 259.015L352.529 260.015L350.777 260.952L349.657 261.845L349.156 262.713L349.125 262.987Z" fill="#41C9DC"/>
</svg>
