<svg width="24" height="18" viewBox="0 0 24 18" fill="none" xmlns="http://www.w3.org/2000/svg">
<path fill-rule="evenodd" clip-rule="evenodd" d="M1.86585e-07 8.54934V8.54934L0.000900445 8.66914L0.00360267 8.78892L0.00810396 8.90864L0.0144029 9.02827L0.0224994 9.14777L0.0323862 9.26713L0.0440634 9.38631L0.0575222 9.50528L0.0727611 9.62401L0.0897715 9.74248L0.108549 9.86065L0.129083 9.97849L0.151367 10.096L0.175393 10.2131L0.201152 10.3298L0.228631 10.446L0.257822 10.5618L0.288711 10.6771L0.321289 10.7919L0.355541 10.9061L0.391454 11.0198L0.429016 11.1329L0.46821 11.2453L0.509024 11.3571L0.551439 11.4682L0.595442 11.5786L0.641014 11.6882L0.688139 11.7972L0.7368 11.9053L0.786977 12.0127L0.838652 12.1192L0.891807 12.2249L0.946423 12.3298L1.00248 12.4338L1.05995 12.5368L1.11882 12.639L1.17907 12.7402L1.24068 12.8404L1.30362 12.9397L1.36788 13.0379L1.43342 13.1352L1.50023 13.2314L1.56828 13.3266L1.63756 13.4207L1.70803 13.5138L1.77968 13.6057L1.85248 13.6966L1.9264 13.7863L2.00142 13.875L2.07752 13.9624L2.15467 14.0487L2.23285 14.1339L2.31203 14.2179L2.39219 14.3007L2.4733 14.3823L2.55534 14.4627L2.63829 14.5418L2.72211 14.6198L2.80678 14.6966L2.89228 14.7721L2.97859 14.8463L3.06567 14.9194L3.1535 14.9912L3.24207 15.0617L3.33133 15.131L3.42128 15.199L3.51187 15.2658L3.6031 15.3313L3.69493 15.3955L3.78734 15.4585L3.88031 15.5202L3.97382 15.5806L4.06783 15.6397L4.16232 15.6976L4.25728 15.7543L4.35268 15.8096L4.4485 15.8637L4.54471 15.9166L4.64129 15.9682L4.73822 16.0185L4.83548 16.0676L4.93304 16.1154L5.03089 16.162L5.129 16.2074L5.22735 16.2515L5.32593 16.2944L5.42471 16.3361L5.52367 16.3765L5.6228 16.4158L5.72207 16.4539L5.82146 16.4907L5.92096 16.5264L6.02054 16.5609L6.1202 16.5942L6.21991 16.6264L6.31965 16.6574L6.41942 16.6872L6.51918 16.7159L6.61893 16.7435L6.71865 16.77L6.81832 16.7953L6.91793 16.8196L7.01747 16.8427L7.11691 16.8648L7.21625 16.8858L7.31547 16.9058L7.41457 16.9247L7.51351 16.9425L7.6123 16.9594L7.71092 16.9752L7.80936 16.99L7.9076 17.0038L8.00564 17.0166L8.10346 17.0284L8.20106 17.0393L8.29842 17.0492L8.39553 17.0582L8.49239 17.0663L8.58899 17.0734L8.6853 17.0796L8.78134 17.0849L8.87709 17.0894L8.97253 17.093L9.06767 17.0957L9.1625 17.0975L9.257 17.0985L9.35118 17.0987L9.44503 17.0981L9.53853 17.0966L9.63169 17.0944L9.7245 17.0914L9.81695 17.0876L9.90904 17.0831L10.0008 17.0778L10.0921 17.0717L10.1831 17.065L10.2737 17.0575L10.3639 17.0493L10.4538 17.0404L10.5432 17.0309L10.6323 17.0206L10.721 17.0097L10.8092 16.9982L10.8971 16.986L10.9846 16.9732L11.0717 16.9597L11.1583 16.9457L11.2446 16.931L11.3305 16.9157L11.416 16.8999L11.501 16.8835L11.5857 16.8665L11.67 16.849L11.7538 16.8309L11.8373 16.8123L11.9203 16.7932L12.003 16.7735L12.0852 16.7534L12.1671 16.7327L12.2485 16.7115L12.3296 16.6899L12.4103 16.6678L12.4906 16.6452L12.5704 16.6221L12.6499 16.5986L12.729 16.5747L12.8078 16.5503L12.8861 16.5255L12.9641 16.5003L13.0417 16.4746L13.1189 16.4486L13.1958 16.4221L13.2723 16.3952L13.3484 16.368L13.4242 16.3404L13.4996 16.3123L13.5747 16.284L13.6495 16.2552L13.7239 16.2261L13.7979 16.1967L13.8717 16.1668L13.9451 16.1367L14.0181 16.1062L14.0909 16.0754L14.1634 16.0442L14.2355 16.0127L14.3074 15.9809L14.3789 15.9488L14.4502 15.9164L14.5211 15.8836L14.5918 15.8506L14.6622 15.8172L14.7324 15.7836L14.8023 15.7496L14.8719 15.7154L14.9413 15.6809L15.0104 15.6461L15.0793 15.611L15.148 15.5756L15.2164 15.54L15.2847 15.504L15.3527 15.4678L15.4205 15.4313L15.4881 15.3946L15.5555 15.3576L15.6227 15.3203L15.6898 15.2827L15.7566 15.2449L15.8233 15.2068L15.8899 15.1685L15.9563 15.1298L16.0226 15.091L16.0887 15.0518L16.1547 15.0124L16.2206 14.9727L16.2863 14.9328L16.352 14.8925L16.4176 14.8521L16.4831 14.8113L16.5485 14.7703L16.6138 14.729L16.6791 14.6874L16.7443 14.6456L16.8094 14.6034L16.8746 14.5611L16.9397 14.5184L17.0047 14.4754L17.0698 14.4322L17.1349 14.3886L17.1999 14.3448L17.265 14.3006L17.3301 14.2562L17.3953 14.2115L17.4605 14.1664L17.5257 14.1211L17.591 14.0754L17.6564 14.0294L17.7218 13.9831L17.7874 13.9364L17.853 13.8894L17.9188 13.8421L17.9847 13.7944L18.0507 13.7463L18.1169 13.6979L18.1832 13.6491L18.2497 13.6L18.3163 13.5505L18.3832 13.5005L18.4503 13.4502L18.5175 13.3995L18.585 13.3483L18.6527 13.2967L18.7207 13.2447L18.789 13.1923L18.8575 13.1393L18.9263 13.086L18.9953 13.0321L19.0647 12.9778L19.1345 12.9229L19.2045 12.8676L19.275 12.8117L19.3457 12.7553L19.4169 12.6984L19.4885 12.6409L19.5604 12.5828L19.6328 12.5241L19.7057 12.4649L19.779 12.405L19.8527 12.3445L19.927 12.2833L20.0017 12.2215L20.077 12.1589L20.1528 12.0957L20.2292 12.0318L20.3062 11.9671L20.3837 11.9016L20.4618 11.8354L20.5406 11.7684L20.62 11.7005L20.7001 11.6318L20.7809 11.5622L20.8624 11.4918L20.9447 11.4204L21.0276 11.3481L21.1114 11.2748L21.1959 11.2005L21.2813 11.1252L21.3675 11.0488L21.4546 10.9714L21.5426 10.8928L21.6315 10.8131L21.7213 10.7322L21.8122 10.65L21.904 10.5667L21.9968 10.482L22.0907 10.396L22.1857 10.3087L22.2818 10.2199L22.3791 10.1297L22.4775 10.038L22.5771 9.94474L22.678 9.8499L22.7802 9.75343L22.8837 9.65527L22.9886 9.55538L23.0948 9.45369L23.2025 9.35015L23.3117 9.2447L23.4224 9.13729L23.5346 9.02784L23.6484 8.91629L23.7639 8.80258L23.8811 8.68664L24 8.56839L23.9188 8.44945L23.801 8.33278L23.685 8.21836L23.5707 8.10614L23.4579 7.99603L23.3468 7.88797L23.2371 7.7819L23.129 7.67776L23.0223 7.57549L22.917 7.47503L22.8131 7.37633L22.7105 7.27932L22.6092 7.18397L22.5091 7.09022L22.4103 6.99803L22.3127 6.90735L22.2162 6.81812L22.1209 6.73033L22.0266 6.64391L21.9334 6.55883L21.8413 6.47505L21.7502 6.39254L21.66 6.31125L21.5708 6.23116L21.4825 6.15222L21.3952 6.07442L21.3087 5.9977L21.223 5.92206L21.1382 5.84744L21.0542 5.77384L20.971 5.70121L20.8885 5.62953L20.8068 5.55878L20.7258 5.48893L20.6455 5.41996L20.5658 5.35184L20.4869 5.28455L20.4085 5.21807L20.3308 5.15237L20.2537 5.08745L20.1771 5.02326L20.1011 4.95981L20.0257 4.89706L19.9507 4.83501L19.8763 4.77363L19.8024 4.7129L19.729 4.65281L19.656 4.59335L19.5835 4.53449L19.5114 4.47622L19.4397 4.41854L19.3684 4.36142L19.2975 4.30485L19.2269 4.24881L19.1568 4.19331L19.0869 4.13831L19.0174 4.08382L18.9482 4.02981L18.8793 3.97628L18.8107 3.92323L18.7424 3.87062L18.6744 3.81847L18.6066 3.76675L18.539 3.71546L18.4717 3.66459L18.4045 3.61414L18.3376 3.56408L18.2709 3.51442L18.2044 3.46514L18.138 3.41624L18.0718 3.36772L18.0057 3.31956L17.9398 3.27176L17.874 3.22431L17.8083 3.1772L17.7427 3.13043L17.6772 3.084L17.6118 3.0379L17.5465 2.99212L17.4812 2.94666L17.416 2.90152L17.3509 2.85668L17.2858 2.81215L17.2207 2.76793L17.1556 2.724L17.0905 2.68036L17.0255 2.63702L16.9604 2.59396L16.8953 2.55119L16.8302 2.5087L16.765 2.46649L16.6998 2.42456L16.6346 2.3829L16.5693 2.34152L16.5039 2.30041L16.4384 2.25958L16.3729 2.21901L16.3073 2.1787L16.2415 2.13867L16.1757 2.0989L16.1097 2.0594L16.0436 2.02016L15.9774 1.98119L15.9111 1.94249L15.8446 1.90405L15.7779 1.86587L15.7111 1.82796L15.6441 1.79032L15.5769 1.75295L15.5096 1.71584L15.442 1.67901L15.3743 1.64244L15.3063 1.60615L15.2382 1.57013L15.1698 1.53439L15.1012 1.49893L15.0324 1.46375L14.9633 1.42885L14.894 1.39424L14.8245 1.35991L14.7547 1.32587L14.6846 1.29213L14.6143 1.25869L14.5437 1.22555L14.4728 1.19271L14.4016 1.16017L14.3302 1.12795L14.2584 1.09605L14.1864 1.06446L14.114 1.0332L14.0414 1.00227L13.9684 0.971665L13.8951 0.941402L13.8214 0.911481L13.7475 0.881908L13.6732 0.852688L13.5986 0.823826L13.5236 0.795328L13.4483 0.7672L13.3726 0.739447L13.2966 0.712075L13.2202 0.685092L13.1435 0.658502L13.0663 0.632313L12.9889 0.606531L12.911 0.581163L12.8328 0.556216L12.7542 0.531697L12.6752 0.507613L12.5958 0.483971L12.516 0.46078L12.4359 0.438047L12.3553 0.415779L12.2744 0.393984L12.1931 0.372671L12.1114 0.351849L12.0292 0.331524L11.9467 0.311706L11.8638 0.292404L11.7805 0.273625L11.6967 0.25538L11.6126 0.237677L11.5281 0.220526L11.4431 0.203934L11.3578 0.187913L11.272 0.172472L11.1859 0.157619L11.0993 0.143366L11.0124 0.129721L10.925 0.116696L10.8373 0.104299L10.7491 0.092541L10.6606 0.0814326L10.5716 0.0709841L10.4823 0.0612058L10.3926 0.0521083L10.3025 0.0437024L10.212 0.0359988L10.1211 0.0290082L10.0299 0.0227416L9.9383 0.0172099L9.84632 0.0124242L9.75399 0.00839555L9.66129 0.00513512L9.56824 0.00265409L9.47485 0.000963694L9.38111 7.52268e-05L9.28704 0L9.19264 0.000749359L9.09791 0.00233467L9.00287 0.00476733L8.90752 0.00805873L8.81187 0.0122203L8.71593 0.0172634L8.6197 0.0231994L8.52319 0.0300397L8.42642 0.0377958L8.32938 0.0464788L8.2321 0.0561002L8.13457 0.0666711L8.03682 0.0782028L7.93885 0.0907063L7.84067 0.104193L7.74229 0.118673L7.64373 0.134159L7.545 0.15066L7.4461 0.168188L7.34705 0.186753L7.24787 0.206365L7.14857 0.227035L7.04915 0.248774L6.94965 0.271591L6.85006 0.295496L6.7504 0.320499L6.6507 0.34661L6.55096 0.373839L6.45119 0.402193L6.35143 0.431683L6.25168 0.462318L6.15196 0.494105L6.05228 0.527053L5.95267 0.561171L5.85314 0.596467L5.75371 0.632947L5.6544 0.67062L5.55523 0.709492L5.45622 0.74957L5.35738 0.790861L5.25873 0.833371L5.1603 0.877106L5.06211 0.922071L4.96418 0.968272L4.86652 1.01571L4.76916 1.0644L4.67213 1.11433L4.57543 1.16552L4.4791 1.21796L4.38316 1.27167L4.28763 1.32663L4.19252 1.38286L4.09788 1.44035L4.00371 1.49911L3.91004 1.55913L3.8169 1.62043L3.72431 1.68299L3.63229 1.74682L3.54086 1.81191L3.45006 1.87827L3.35991 1.94589L3.27043 2.01477L3.18164 2.0849L3.09357 2.15629L3.00624 2.22893L2.91969 2.30281L2.83393 2.37793L2.74899 2.45428L2.66489 2.53186L2.58167 2.61066L2.49934 2.69068L2.41792 2.77189L2.33746 2.85431L2.25796 2.93791L2.17946 3.02269L2.10198 3.10863L2.02554 3.19574L1.95017 3.28398L1.8759 3.37336L1.80274 3.46386L1.73073 3.55547L1.65988 3.64818L1.59022 3.74196L1.52177 3.83681L1.45456 3.93271L1.38862 4.02964L1.32395 4.12759L1.26059 4.22654L1.19855 4.32648L1.13787 4.42738L1.07855 4.52922L1.02063 4.63199L0.964123 4.73567L0.909047 4.84024L0.855424 4.94568L0.803275 5.05196L0.752619 5.15906L0.703473 5.26697L0.655858 5.37565L0.609788 5.48509L0.565284 5.59526L0.522361 5.70615L0.481036 5.81771L0.441324 5.92994L0.40324 6.0428L0.366801 6.15626L0.332018 6.27031L0.298905 6.38492L0.267477 6.50005L0.237744 6.61569L0.209718 6.7318L0.183411 6.84837L0.158832 6.96535L0.135992 7.08272L0.114899 7.20045L0.0955613 7.31852L0.0779881 7.43689L0.0621834 7.55554L0.0481574 7.67444L0.0359116 7.79356L0.0254547 7.91286L0.016788 8.03233L0.00991611 8.15192L0.00484035 8.27161L0.00156509 8.39137L9.18122e-05 8.51117L1.86585e-07 8.54934Z" fill="black"/>
</svg>
