<svg width="105" height="92" viewBox="0 0 105 92" fill="none" xmlns="http://www.w3.org/2000/svg">
<g filter="url(#filter0_b_12_97)">
<path d="M32.9697 0.000748891C36.2772 0.0935205 39.4797 0.626143 42.5824 1.59939H42.8921C43.1021 1.69139 43.2596 1.79307 43.3646 1.88507C44.5249 2.22885 45.6221 2.61622 46.6721 3.14884L48.6671 3.97198C49.4546 4.35934 50.3996 5.08081 50.9246 5.37617C51.4495 5.66185 52.027 5.95721 52.4995 6.29131C58.3322 2.18043 65.4144 -0.0468982 72.7118 0.000748891C76.0245 0.000748891 79.332 0.432462 82.4767 1.40571C101.854 7.21614 108.837 26.8263 103.004 43.9671C99.6965 52.7263 94.2891 60.7205 87.2069 67.2524C77.0693 76.307 65.9446 84.3448 53.9695 91.2689L52.657 92L51.292 91.2204C39.2749 84.3448 28.0873 76.307 17.8551 67.204C10.8202 60.6721 5.40753 52.7263 2.04757 43.9671C-3.88487 26.8263 3.09755 7.21614 22.6851 1.30403C24.2076 0.819824 25.7773 0.480883 27.3523 0.292044H27.9823C29.4575 0.0935205 30.9223 0.000748891 32.3922 0.000748891H32.9697Z" fill="#BCFDF7" fill-opacity="0.38"/>
<path d="M42.4568 1.99989L42.5181 2.01913H42.5824H42.8001C42.9369 2.08574 43.0314 2.15115 43.088 2.20077L43.1572 2.26139L43.2454 2.28752C44.3933 2.62765 45.4638 3.00658 46.4822 3.52317L46.4968 3.53059L46.512 3.53685L48.4939 4.35461C48.8578 4.53491 49.2662 4.79552 49.6621 5.05829C49.7462 5.11408 49.8304 5.17053 49.9137 5.22632C50.2129 5.42666 50.4994 5.61861 50.7187 5.74199L50.7187 5.74203L50.7239 5.74486C50.8135 5.79361 50.9032 5.84195 50.9926 5.8901C51.4429 6.13267 51.8847 6.37063 52.2572 6.63403L52.4991 6.80511L52.7413 6.6344C58.5019 2.57435 65.4985 0.373402 72.7091 0.420482V0.420491H72.7118C75.9886 0.420491 79.2536 0.847572 82.3526 1.8067L82.3562 1.80777C101.459 7.53586 108.377 26.865 102.609 43.8255C99.325 52.5187 93.957 60.4551 86.9248 66.9416C76.8104 75.9751 65.7109 83.9948 53.7622 90.9038C53.7613 90.9044 53.7604 90.9049 53.7594 90.9055L52.6596 91.5181L51.5005 90.8561C39.5097 83.9955 28.3469 75.9757 18.1375 66.8934C11.1516 60.4061 5.77798 52.517 2.44195 43.8233C-3.4233 26.8665 3.4908 7.53589 22.8064 1.70586L22.8064 1.70591L22.8123 1.70403C24.3015 1.23042 25.8369 0.898078 27.3775 0.711786H27.9823H28.0104L28.0383 0.708036C29.4941 0.512128 30.9401 0.420491 32.3922 0.420491H32.9638C36.2313 0.512662 39.3934 1.03899 42.4568 1.99989Z" stroke="white" stroke-opacity="0.3" stroke-width="0.839484"/>
</g>
<defs>
<filter id="filter0_b_12_97" x="-18.1888" y="-18.1888" width="141.378" height="128.378" filterUnits="userSpaceOnUse" color-interpolation-filters="sRGB">
<feFlood flood-opacity="0" result="BackgroundImageFix"/>
<feGaussianBlur in="BackgroundImageFix" stdDeviation="9.09441"/>
<feComposite in2="SourceAlpha" operator="in" result="effect1_backgroundBlur_12_97"/>
<feBlend mode="normal" in="SourceGraphic" in2="effect1_backgroundBlur_12_97" result="shape"/>
</filter>
</defs>
</svg>
