<svg width="72" height="72" viewBox="0 0 72 72" fill="none" xmlns="http://www.w3.org/2000/svg">
<path fill-rule="evenodd" clip-rule="evenodd" d="M42.2441 36.0014L42.2475 36.0639L42.2579 36.1265L42.2751 36.1897L42.2992 36.2534L42.3304 36.3181L42.3688 36.3839L42.4143 36.451L42.4672 36.5197L42.5276 36.5903L42.5957 36.663L42.6716 36.7381L42.7556 36.8158L42.848 36.8964L42.9489 36.9804L43.0587 37.0679L43.1777 37.1594L43.3062 37.2552L43.4445 37.3557L43.5932 37.4614L43.7525 37.5725L43.9229 37.6897L44.1049 37.8134L44.2989 37.9441L44.5056 38.0824L44.7253 38.2289L44.9588 38.3841L45.2066 38.5489L45.4694 38.7238L45.7477 38.9097L46.0423 39.1073L46.3538 39.3174L46.683 39.541L47.0305 39.7789L47.3971 40.0323L47.7834 40.302L48.1903 40.5891L48.6184 40.8948L49.0684 41.2203L49.5409 41.5666L50.0364 41.935L50.5557 42.3268L51.099 42.7433L51.6668 43.1855L52.2593 43.6549L52.8766 44.1527L53.5186 44.6799L54.1852 45.2377L54.8758 45.8272L55.5899 46.4492L56.3263 47.1045L57.0839 47.7936L57.8612 48.5169L58.6561 49.2746L59.4663 50.0664L60.2893 50.8918L61.1217 51.7499L61.9601 52.6394L62.8004 53.5585L63.6383 54.505L64.4687 55.4761L65.2865 56.4685L66.0861 57.4782L66.8613 58.5009L67.606 59.5314L68.3137 60.5643L68.9778 61.5935L69.5919 62.6125L70.1494 63.6145L70.6441 64.5921L71.0701 65.5381L71.4218 66.445L71.6943 67.3052L71.8836 68.1117L71.986 68.8572L71.9992 69.5355L71.9215 70.1403L71.7524 70.6666L71.4923 71.1098L71.1428 71.4663L70.7064 71.7336L70.1866 71.9099L69.5878 71.9949L68.9152 71.9889L68.1747 71.8935L67.3728 71.711L66.5165 71.445L65.6131 71.0994L64.6699 70.6792L63.6945 70.1898L62.6942 69.6371L61.6762 69.0273L60.6475 68.3669L59.6147 67.6625L58.5837 66.9205L57.5602 66.1475L56.5492 65.3497L55.5553 64.5332L54.5823 63.7036L53.6337 62.8662L52.7123 62.0259L51.8203 61.1872L50.9596 60.3542L50.1316 59.5304L49.337 58.7191L48.5766 57.9229L47.8505 57.1442L47.1587 56.385L46.5007 55.6468L45.8761 54.931L45.284 54.2385L44.7237 53.57L44.194 52.926L43.694 52.3068L43.2223 51.7123L42.7779 51.1426L42.3595 50.5974L41.9658 50.0762L41.5955 49.5788L41.2474 49.1045L40.9204 48.6528L40.6131 48.223L40.3245 47.8145L40.0534 47.4265L39.7989 47.0584L39.5597 46.7094L39.335 46.3788L39.1238 46.0659L38.9252 45.7701L38.7385 45.4905L38.5627 45.2265L38.3972 44.9775L38.2412 44.7429L38.094 44.5221L37.9551 44.3144L37.8238 44.1194L37.6995 43.9365L37.5819 43.7652L37.4702 43.605L37.3642 43.4555L37.2633 43.3164L37.1671 43.1871L37.0753 43.0674L36.9874 42.9569L36.9032 42.8553L36.8223 42.7623L36.7443 42.6776L36.6691 42.601L36.5962 42.5323L36.5255 42.4713L36.4566 42.4178L36.3894 42.3717L36.3235 42.3328L36.2587 42.3011L36.1949 42.2763L36.1317 42.2586L36.069 42.2477L36.0065 42.2437L35.9441 42.2466L35.8814 42.2564L35.8184 42.273L35.7546 42.2967L35.6901 42.3273L35.6244 42.365L35.5574 42.41L35.4888 42.4623L35.4183 42.5221L35.3458 42.5895L35.271 42.6648L35.1935 42.7482L35.113 42.8399L35.0294 42.9401L34.9421 43.0492L34.8509 43.1674L34.7555 43.2951L34.6554 43.4327L34.5502 43.5805L34.4395 43.7389L34.3228 43.9084L34.1996 44.0895L34.0695 44.2825L33.9318 44.4881L33.786 44.7069L33.6315 44.9392L33.4675 45.1859L33.2934 45.4474L33.1084 45.7244L32.9118 46.0177L32.7027 46.3278L32.4802 46.6555L32.2434 47.0016L31.9913 47.3666L31.723 47.7513L31.4372 48.1565L31.133 48.5829L30.8092 49.0311L30.4646 49.5017L30.0979 49.9954L29.708 50.5128L29.2936 51.0541L28.8534 51.62L28.3862 52.2104L27.8907 52.8257L27.3659 53.4658L26.8105 54.1304L26.2236 54.8191L25.6042 55.5313L24.9515 56.266L24.2651 57.0219L23.5445 57.7976L22.7895 58.5912L22.0004 59.4003L21.1776 60.2223L20.322 61.0541L19.4349 61.8921L18.518 62.7324L17.5736 63.5706L16.6043 64.4018L15.6135 65.2208L14.6049 66.0219L13.5831 66.7993L12.553 67.5466L11.52 68.2575L10.4902 68.9254L9.4701 69.5436L8.46652 70.1059L7.48663 70.6058L6.53781 71.0374L5.62753 71.3951L4.76325 71.6742L3.95225 71.8702L3.20155 71.9796L2.51772 72L1.90677 71.9296L1.37405 71.7678L0.924088 71.5149L0.560543 71.1725L0.286104 70.7429L0.102449 70.2295L0.0102171 69.6368L0.00900641 68.9699L0.0974012 68.2346L0.273018 67.4375L0.532576 66.5853L0.871984 65.6854L1.28644 64.7451L1.77057 63.772L2.31849 62.7734L2.92399 61.7567L3.58062 60.7286L4.28184 59.6959L5.02107 58.6646L5.79185 57.6403L6.5879 56.6282L7.40319 55.6329L8.232 54.6581L9.069 53.7075L9.90925 52.7839L10.7482 51.8895L11.5819 51.0263L12.4065 50.1956L13.219 49.3984L14.0165 48.6353L14.7967 47.9065L15.5576 47.2119L16.2975 46.5513L17.0151 45.9241L17.7096 45.3295L18.38 44.7667L19.026 44.2346L19.6472 43.7323L20.2436 43.2585L20.8154 42.8119L21.3626 42.3915L21.8856 41.9958L22.3849 41.6238L22.8611 41.274L23.3146 40.9453L23.7461 40.6365L24.1563 40.3465L24.5459 40.0741L24.9156 39.8182L25.2661 39.5779L25.5981 39.3521L25.9124 39.1399L26.2096 38.9403L26.4905 38.7527L26.7557 38.576L27.0058 38.4097L27.2416 38.253L27.4635 38.1052L27.6722 37.9656L27.8682 37.8337L28.0521 37.709L28.2243 37.5908L28.3853 37.4787L28.5356 37.3722L28.6756 37.2709L28.8057 37.1744L28.9261 37.0822L29.0374 36.9941L29.1397 36.9096L29.2334 36.8284L29.3187 36.7502L29.3959 36.6748L29.4652 36.6017L29.5268 36.5308L29.5809 36.4618L29.6276 36.3945L29.6671 36.3285L29.6994 36.2637L29.7247 36.1998L29.743 36.1366L29.7544 36.0738L29.759 36.0113L29.7566 35.9489L29.7474 35.8863L29.7313 35.8232L29.7082 35.7596L29.6781 35.6951L29.641 35.6295L29.5966 35.5626L29.5449 35.4941L29.4857 35.4239L29.4189 35.3515L29.3442 35.2769L29.2615 35.1996L29.1705 35.1194L29.0709 35.036L28.9625 34.9491L28.8451 34.8582L28.7181 34.7631L28.5813 34.6634L28.4344 34.5586L28.2768 34.4484L28.1082 34.3322L27.9281 34.2096L27.736 34.08L27.5314 33.943L27.3137 33.7978L27.0824 33.644L26.837 33.4808L26.5766 33.3076L26.3008 33.1235L26.0089 32.9278L25.7001 32.7198L25.3738 32.4984L25.0293 32.2628L24.6658 32.012L24.2826 31.7449L23.879 31.4606L23.4544 31.158L23.0079 30.8357L22.5391 30.4928L22.0472 30.128L21.5318 29.74L20.9923 29.3276L20.4284 28.8895L19.8399 28.4245L19.2265 27.9314L18.5884 27.4089L17.9257 26.856L17.2389 26.2716L16.5285 25.6549L15.7956 25.005L15.0412 24.3213L14.267 23.6034L13.4748 22.8512L12.6668 22.0648L11.8457 21.2447L11.0145 20.3917L10.1768 19.5071L9.33652 18.5926L8.49797 17.6502L7.66598 16.6829L6.84579 15.6936L6.04297 14.6864L5.26347 13.6655L4.51349 12.6358L3.79946 11.6029L3.12791 10.5727L2.50541 9.55159L1.93846 8.54647L1.43336 7.56446L0.996103 6.61293L0.632237 5.69934L0.346764 4.83115L0.144013 4.01568L0.0275325 3.25996L0 2.5706L0.0631464 1.95367L0.2177 1.41456L0.463354 0.957875L0.79876 0.58735L1.22155 0.30575L1.72836 0.114836L2.31493 0.0153278L2.97617 0.00690788L3.70626 0.0882392L4.4988 0.257013L5.34688 0.510017L6.24331 0.843222L7.18067 1.25188L8.15147 1.73065L9.1483 2.27369L10.1639 2.87482L11.1913 3.5276L12.224 4.22548L13.2556 4.9619L14.2807 5.73037L15.294 6.52461L16.2909 7.33855L17.2674 8.16645L18.2201 9.00296L19.146 9.84309L20.0428 10.6823L20.9086 11.5165L21.7419 12.3419L22.5418 13.1555L23.3077 13.9542L24.0393 14.7358L24.7366 15.4983L25.3999 16.2399L26.0298 16.9593L26.627 17.6556L27.1923 18.328L27.7268 18.9759L28.2315 19.5991L28.7075 20.1975L29.1562 20.7711L29.5787 21.3202L29.9763 21.8452L30.3502 22.3463L30.7017 22.8243L31.0321 23.2795L31.3424 23.7128L31.6339 24.1246L31.9077 24.5158L32.1648 24.8871L32.4064 25.2391L32.6333 25.5725L32.8466 25.8882L33.0471 26.1867L33.2357 26.4689L33.4132 26.7353L33.5803 26.9866L33.7378 27.2234L33.8863 27.4464L34.0265 27.6562L34.159 27.8532L34.2843 28.038L34.403 28.2111L34.5155 28.373L34.6224 28.5242L34.7241 28.6649L34.821 28.7957L34.9135 28.917L35.002 29.0289L35.0868 29.1319L35.1682 29.2263L35.2466 29.3123L35.3223 29.3901L35.3955 29.4601L35.4665 29.5223L35.5357 29.5769L35.6032 29.6242L35.6693 29.6643L35.7342 29.6971L35.7981 29.723L35.8614 29.7419L35.9242 29.7538L35.9867 29.7589L36.0491 29.7571L36.1117 29.7484L36.1747 29.7329L36.2383 29.7104L36.3027 29.6809L36.3682 29.6442L36.435 29.6004L36.5034 29.5493L36.5735 29.4907L36.6456 29.4245L36.7201 29.3505L36.7971 29.2684L36.8771 29.1781L36.9602 29.0792L37.0469 28.9716L37.1374 28.8548L37.2322 28.7287L37.3315 28.5927L37.4359 28.4466L37.5457 28.2898L37.6614 28.1221L37.7835 27.943L37.9124 27.7519L38.0489 27.5483L38.1933 27.3317L38.3465 27.1015L38.5089 26.8572L38.6813 26.5981L38.8645 26.3235L39.0592 26.0329L39.2663 25.7255L39.4866 25.4007L39.721 25.0576L39.9706 24.6957L40.2363 24.3141L40.5192 23.9122L40.8204 23.4893L41.141 23.0446L41.4823 22.5776L41.8453 22.0876L42.2315 21.574L42.6419 21.0365L43.0779 20.4746L43.5407 19.8881L44.0316 19.2767L44.5517 18.6406L45.1021 17.9799L45.684 17.295L46.2981 16.5865L46.9454 15.8553L47.6264 15.1026L48.3416 14.3299L49.0911 13.5391L49.8748 12.7323L50.6923 11.9122L51.5427 11.0817L52.4249 10.2444L53.3372 9.40421L54.2774 8.56538L55.2429 7.73271L56.2306 6.91141L57.2366 6.10702L58.2566 5.32547L59.2858 4.57293L60.3187 3.85582L61.3494 3.18067L62.3715 2.55405L63.3782 1.98247L64.3624 1.47224L65.3166 1.02938L66.2335 0.659492L67.1056 0.367619L67.9256 0.158147L68.6864 0.0346907L69.3813 0L70.0042 0.0558833L70.5497 0.20315L71.0131 0.441577L71.3906 0.769898L71.6794 1.18582L71.8776 1.68607L71.9844 2.26645L72 2.92192L71.9257 3.64673L71.7638 4.43451L71.5174 5.27841L71.1904 6.17122L70.7875 7.10556L70.3141 8.07394L69.776 9.06893L69.1792 10.0833L68.5303 11.11L67.8357 12.1424L67.1021 13.1743L66.3359 14.2L65.5435 15.2144L64.7309 16.2127L63.9038 17.191L63.0678 18.1456L62.2278 19.0738L61.3883 19.9729L60.5535 20.8412L59.7272 21.6771L58.9126 22.4797L58.1126 23.2483L57.3295 23.9825L56.5654 24.6825L55.8221 25.3485L55.1008 25.9811L54.4026 26.5808L53.7283 27.1486L53.0784 27.6855L52.4532 28.1925L51.8528 28.6707L51.2772 29.1215L50.7261 29.546L50.1992 29.9456L49.6962 30.3213L49.2164 30.6746L48.7593 31.0065L48.3243 31.3184L47.9108 31.6113L47.518 31.8865L47.1451 32.1449L46.7916 32.3876L46.4567 32.6157L46.1397 32.83L45.8398 33.0315L45.5563 33.221L45.2887 33.3993L45.0362 33.5672L44.7982 33.7255L44.5741 33.8747L44.3633 34.0155L44.1653 34.1486L43.9796 34.2744L43.8055 34.3936L43.6427 34.5067L43.4907 34.614L43.3492 34.7161L43.2176 34.8133L43.0956 34.9062L42.9829 34.9949L42.8792 35.08L42.7841 35.1617L42.6975 35.2403L42.619 35.3162L42.5484 35.3896L42.4856 35.4608L42.4303 35.5301L42.3825 35.5977L42.3419 35.6639L42.3084 35.7289L42.282 35.7929L42.2626 35.8562L42.2501 35.919L42.2445 35.9815L42.2441 36.0014Z" fill="#41C9DC"/>
</svg>
