<svg width="76" height="84" viewBox="0 0 76 84" fill="none" xmlns="http://www.w3.org/2000/svg">
<path fill-rule="evenodd" clip-rule="evenodd" d="M60.097 42.0029V42.0029L60.1161 42.2244L60.1723 42.447L60.2639 42.6719L60.3897 42.9L60.5483 43.1323L60.7384 43.3698L60.9591 43.6133L61.2092 43.8637L61.4877 44.1219L61.7936 44.3886L62.1258 44.6646L62.4834 44.9506L62.8653 45.2473L63.2702 45.5554L63.697 45.8754L64.1444 46.2079L64.611 46.5534L65.0953 46.9122L65.5956 47.2847L66.1102 47.6713L66.6372 48.0719L67.1744 48.4867L67.7197 48.9156L68.2707 49.3586L68.8249 49.8151L69.3796 50.285L69.932 50.7675L70.4793 51.262L71.0182 51.7676L71.5458 52.2833L72.0588 52.8079L72.554 53.3402L73.028 53.8786L73.4776 54.4215L73.8996 54.9673L74.2909 55.5141L74.6484 56.0599L74.9693 56.6028L75.2509 57.1406L75.4907 57.6712L75.6866 58.1925L75.8367 58.7023L75.9393 59.1984L75.9932 59.679L75.9976 60.1419L75.9518 60.5853L75.8558 61.0075L75.7099 61.4069L75.5145 61.7821L75.2708 62.1318L74.98 62.4552L74.6438 62.7513L74.2641 63.0195L73.8433 63.2596L73.3837 63.4713L72.888 63.6548L72.3592 63.8102L71.8002 63.9382L71.214 64.0393L70.6039 64.1144L69.9729 64.1645L69.3242 64.1908L68.661 64.1945L67.9862 64.1769L67.3029 64.1396L66.6138 64.084L65.9215 64.0117L65.2287 63.9242L64.5377 63.8232L63.8507 63.7103L63.1698 63.587L62.4966 63.455L61.833 63.3157L61.1804 63.1706L60.54 63.0212L59.9131 62.8688L59.3006 62.7147L58.7033 62.5603L58.1219 62.4066L57.557 62.2548L57.0088 62.1059L56.4778 61.9609L55.9642 61.8207L55.4679 61.6863L54.9891 61.5582L54.5277 61.4374L54.0834 61.3245L53.6562 61.2201L53.2458 61.1249L52.8518 61.0393L52.4739 60.9639L52.1117 60.8991L51.7649 60.8454L51.433 60.8033L51.1156 60.7731L50.8121 60.7551L50.5222 60.7498L50.2453 60.7575L49.981 60.7785L49.7287 60.8131L49.4879 60.8617L49.2582 60.9245L49.039 61.0019L48.8297 61.094L48.63 61.2014L48.4393 61.3241L48.2571 61.4625L48.0828 61.6169L47.9159 61.7876L47.756 61.9748L47.6024 62.1788L47.4547 62.3999L47.3123 62.6383L47.1747 62.8943L47.0413 63.1681L46.9116 63.4599L46.7849 63.7699L46.6608 64.0983L46.5385 64.4452L46.4176 64.8107L46.2973 65.1948L46.1771 65.5976L46.0563 66.019L45.9343 66.4588L45.8102 66.917L45.6836 67.3931L45.5537 67.887L45.4196 68.398L45.2809 68.9256L45.1366 69.4692L44.9862 70.028L44.8287 70.6009L44.6636 71.1869L44.4902 71.7848L44.3077 72.3931L44.1154 73.0103L43.9128 73.6347L43.6991 74.2644L43.474 74.8972L43.2367 75.5309L42.9871 76.1631L42.7245 76.7913L42.4488 77.4127L42.1598 78.0244L41.8574 78.6234L41.5416 79.2068L41.2124 79.7712L40.8703 80.3135L40.5154 80.8305L40.1484 81.3189L39.7699 81.7755L39.3805 82.1973L38.9813 82.5812L38.5732 82.9244L38.1574 83.2243L37.735 83.4785L37.3074 83.6849L36.8761 83.8415L36.4424 83.9469L36.008 84L35.5744 83.9999L35.1432 83.9464L34.7159 83.8393L34.2941 83.6791L33.8793 83.4666L33.473 83.2031L33.0765 82.89L32.691 82.5293L32.3177 82.1233L31.9576 81.6745L31.6117 81.1858L31.2805 80.6601L30.9649 80.1007L30.6651 79.5109L30.3815 78.8943L30.1142 78.2544L29.8632 77.5947L29.6284 76.9188L29.4095 76.2302L29.2061 75.5323L29.0177 74.8284L28.8436 74.1219L28.6831 73.4156L28.5355 72.7126L28.3998 72.0155L28.2752 71.3268L28.1607 70.649L28.0552 69.9841L27.9577 69.3342L27.8671 68.7009L27.7823 68.086L27.7022 67.4908L27.6258 66.9166L27.5518 66.3646L27.4792 65.8357L27.4068 65.3308L27.3334 64.8506L27.258 64.396L27.1795 63.9673L27.0965 63.5653L27.008 63.1903L26.9128 62.8428L26.8095 62.5233L26.697 62.2322L26.5739 61.9701L26.4388 61.7373L26.2903 61.5345L26.1266 61.3623L25.9463 61.2215L25.7474 61.1128L25.5291 61.0354L25.2911 60.9876L25.0333 60.9675L24.7555 60.9735L24.4573 61.0041L24.1386 61.0579L23.7991 61.1335L23.4386 61.2297L23.0569 61.3451L22.6537 61.4786L22.229 61.6289L21.7826 61.7948L21.3145 61.9749L20.8248 62.168L20.3135 62.3728L19.7809 62.5879L19.2274 62.8117L18.6534 63.0429L18.0594 63.2798L17.4463 63.5208L16.8149 63.764L16.1663 64.0078L15.5018 64.2503L14.8228 64.4895L14.1309 64.7234L13.428 64.9499L12.716 65.167L11.9973 65.3726L11.274 65.5645L10.549 65.7406L9.82477 65.8988L9.10432 66.0371L8.39064 66.1534L7.68683 66.2459L6.99609 66.3129L6.32165 66.3526L5.66676 66.3637L5.03464 66.3448L4.42846 66.2949L3.85128 66.213L3.30606 66.0985L2.79554 65.9511L2.3223 65.7707L1.88864 65.5572L1.49663 65.3113L1.14801 65.0333L0.844221 64.7244L0.586361 64.3855L0.375184 64.018L0.211089 63.6234L0.094121 63.2036L0.0239733 62.7603L0 62.2956L0.021229 61.8116L0.0863816 61.3105L0.193896 60.7945L0.341952 60.2658L0.528503 59.7269L0.751303 59.1798L1.00794 58.6268L1.29588 58.07L1.61247 57.5114L1.95499 56.9529L2.3207 56.3963L2.70683 55.8433L3.11064 55.2954L3.52942 54.7541L3.96052 54.2205L4.40137 53.6959L4.8495 53.181L5.30255 52.6769L5.75827 52.1841L6.21454 51.7032L6.66938 51.2346L7.12092 50.7787L7.56747 50.3357L8.00742 49.9056L8.43935 49.4885L8.86191 49.0843L9.27393 48.6929L9.67433 48.3141L10.0621 47.9475L10.4365 47.5929L10.7967 47.2498L11.142 46.9179L11.472 46.5968L11.7859 46.2859L12.0835 45.9847L12.3644 45.6927L12.6283 45.4094L12.8749 45.1343L13.104 44.8667L13.3154 44.6062L13.509 44.3521L13.6846 44.1038L13.8423 43.8609L13.9818 43.6226L14.1032 43.3885L14.2064 43.1579L14.2914 42.9303L14.3582 42.7051L14.4068 42.4817L14.4371 42.2596L14.4491 42.0381L14.4429 41.8168L14.4184 41.5949L14.3757 41.372L14.3147 41.1474L14.2355 40.9207L14.1381 40.6911L14.0224 40.4582L13.8887 40.2213L13.7368 39.9799L13.5669 39.7334L13.379 39.4812L13.1732 39.2228L12.9498 38.9575L12.7087 38.6848L12.4504 38.4042L12.1749 38.1151L11.8825 37.8169L11.5737 37.5091L11.2488 37.1913L10.9084 36.8629L10.5528 36.5234L10.1829 36.1725L9.79927 35.8098L9.40278 35.4349L8.99435 35.0475L8.57502 34.6474L8.14594 34.2345L7.70839 33.8085L7.26378 33.3696L6.81365 32.9178L6.35967 32.4532L5.90364 31.9762L5.44752 31.4871L4.99338 30.9865L4.54344 30.475L4.1 29.9534L3.66552 29.4225L3.24254 28.8835L2.83367 28.3376L2.44161 27.7861L2.0691 27.2305L1.71889 26.6724L1.39374 26.1136L1.09639 25.556L0.829497 25.0016L0.595649 24.4524L0.3973 23.9106L0.236749 23.3784L0.116112 22.8582L0.0372839 22.3521L0.00191112 21.8623L0.0113656 21.3913L0.0667193 20.9409L0.168724 20.5134L0.317796 20.1106L0.514002 19.7343L0.757057 19.3862L1.04632 19.0675L1.3808 18.7796L1.75917 18.5234L2.17977 18.2995L2.64064 18.1085L3.13955 17.9506L3.67401 17.8257L4.24132 17.7335L4.83859 17.6735L5.46279 17.6448L6.11077 17.6464L6.77934 17.6772L7.46524 17.7357L8.16523 17.8202L8.87611 17.9292L9.59473 18.0607L10.3181 18.2128L11.0432 18.3834L11.7673 18.5705L12.4877 18.7719L13.2021 18.9856L13.9081 19.2093L14.6037 19.4411L15.287 19.6788L15.9563 19.9205L16.6101 20.164L17.2471 20.4077L17.8661 20.6496L18.4663 20.8879L19.0468 21.1211L19.6069 21.3475L20.1462 21.5655L20.6643 21.7737L21.1609 21.9707L21.6359 22.1551L22.0892 22.3257L22.5208 22.4811L22.9308 22.62L23.3193 22.7414L23.6866 22.8438L24.0327 22.9261L24.358 22.987L24.6627 23.0251L24.947 23.0391L25.2112 23.0275L25.4554 22.9887L25.68 22.921L25.885 22.8224L26.0711 22.6917L26.2399 22.5295L26.393 22.3364L26.5323 22.1131L26.659 21.8602L26.7748 21.5783L26.8808 21.2678L26.9785 20.9292L27.069 20.5629L27.1536 20.1694L27.2334 19.7492L27.3097 19.3027L27.3836 18.8307L27.4561 18.3336L27.5286 17.8122L27.602 17.2675L27.6776 16.7002L27.7563 16.1116L27.8395 15.5028L27.9281 14.8752L28.0233 14.2304L28.1261 13.5701L28.2377 12.8961L28.359 12.2107L28.491 11.516L28.6347 10.8146L28.791 10.109L28.9607 9.40225L29.1445 8.69721L29.3431 7.99707L29.557 7.30513L29.7867 6.6248L30.0325 5.95954L30.2946 5.31292L30.573 4.6885L30.8676 4.08982L31.1783 3.52038L31.5045 2.9836L31.8458 2.48274L32.2015 2.02091L32.5707 1.60099L32.9524 1.22562L33.3456 0.897158L33.7489 0.617633L34.1612 0.388736L34.5809 0.211786L35.0066 0.0877211L35.4367 0.0170796L35.8697 0L36.304 0.0362199L36.7381 0.125084L37.1703 0.265556L37.5993 0.456239L38.0235 0.695398L38.4415 0.98099L38.8522 1.31069L39.2544 1.68194L39.647 2.09196L40.0291 2.53782L40.3998 3.01644L40.7586 3.52466L41.1048 4.05926L41.4382 4.617L41.7583 5.19466L42.065 5.78905L42.3582 6.39706L42.6381 7.01568L42.9048 7.64198L43.1586 8.27321L43.3997 8.90674L43.6287 9.54009L43.8459 10.171L44.052 10.7972L44.2475 11.4169L44.4331 12.0283L44.6093 12.6297L44.777 13.2196L44.9368 13.7968L45.0894 14.3602L45.2356 14.9087L45.376 15.4415L45.5114 15.9579L45.6426 16.4572L45.7702 16.9391L45.895 17.403L46.0176 17.8487L46.1387 18.276L46.2591 18.6847L46.3792 19.0747L46.4999 19.4462L46.6216 19.799L46.7451 20.1332L46.8709 20.4491L46.9996 20.7467L47.1318 21.0262L47.268 21.2878L47.4088 21.5318L47.5548 21.7584L47.7064 21.9678L47.8643 22.1604L48.0289 22.3363L48.2007 22.4958L48.3804 22.6393L48.5684 22.767L48.7651 22.8792L48.9713 22.9762L49.1872 23.0582L49.4135 23.1256L49.6507 23.1787L49.8993 23.2177L50.1598 23.243L50.4326 23.2549L50.7183 23.2537L51.0174 23.2398L51.3303 23.2134L51.6576 23.175L51.9996 23.125L52.3568 23.0637L52.7296 22.9917L53.1185 22.9092L53.5237 22.817L53.9455 22.7155L54.3843 22.6052L54.8403 22.4868L55.3135 22.361L55.8042 22.2285L56.3123 22.0901L56.8378 21.9465L57.3805 21.7988L57.9402 21.6478L58.5164 21.4946L59.1087 21.3402L59.7164 21.1859L60.3389 21.0329L60.975 20.8824L61.6239 20.7358L62.2841 20.5945L62.9544 20.4599L63.6331 20.3337L64.3184 20.2173L65.0083 20.1124L65.7008 20.0204L66.3935 19.9431L67.0839 19.882L67.7694 19.8386L68.4472 19.8146L69.1144 19.8114L69.768 19.8303L70.405 19.8727L71.0221 19.9398L71.6162 20.0325L72.1843 20.1518L72.723 20.2985L73.2296 20.473L73.7009 20.6757L74.1344 20.9067L74.5275 21.166L74.8777 21.4533L75.1832 21.768L75.4421 22.1095L75.653 22.4767L75.8147 22.8685L75.9267 23.2836L75.9884 23.7205L76 24.1774L75.9618 24.6525L75.8746 25.1439L75.7395 25.6496L75.558 26.1674L75.332 26.6953L75.0634 27.231L74.7548 27.7725L74.4086 28.3176L74.0277 28.8643L73.6152 29.4106L73.174 29.9547L72.7074 30.4947L72.2186 31.0291L71.711 31.5563L71.1877 32.075L70.652 32.5839L70.1071 33.082L69.556 33.5684L69.0017 34.0424L68.447 34.5032L67.8947 34.9506L67.3473 35.384L66.8073 35.8033L66.2768 36.2084L65.7581 36.5994L65.253 36.9764L64.7635 37.3396L64.2911 37.6893L63.8374 38.0258L63.4038 38.3498L62.9918 38.6616L62.6025 38.9619L62.237 39.2512L61.8966 39.5303L61.5822 39.7999L61.2949 40.0607L61.0356 40.3135L60.8055 40.5591L60.6055 40.7984L60.4367 41.0323L60.3004 41.2616L60.1977 41.4874L60.1301 41.7106L60.099 41.9324L60.097 42.0029Z" fill="#41C9DC"/>
</svg>
